<svg xmlns="http://www.w3.org/2000/svg" viewBox="0 0 300 300">
    <g id="locker" fill="rgb(37 99 235)" transform="matrix(1 0 0 1 165 61) scale(1.7)">
        <g transform="matrix(1 0 0 1 14.93 -15.05)">
            <path transform="translate(-64.93, -34.95)" d="M 79.551 20.313 C 71.475 12.241 58.349000000000004 12.241 50.274 20.313 C 42.202 28.387 42.202 41.516 50.274 49.589 C 58.349000000000004 57.663 71.475 57.663 79.551 49.589 C 87.68 41.515 87.68 28.387 79.551 20.313 z M 75.267 32.671 C 73.068 34.924 69.443 34.924 67.191 32.671 C 64.99600000000001 30.474 64.99600000000001 26.85 67.191 24.599 C 69.443 22.4 73.068 22.4 75.267 24.599 C 77.519 26.85 77.519 30.474 75.267 32.671 z" />
        </g>
    </g>
    <g id="L" fill="rgb(37 99 235)">
        <rect x="0" y="0" width="40" height="300" />
        <rect x="-60" y="260" width="180" height="40" transform="skewX(18)" />
    </g>
    <g id="A" fill="#FF0000">
        <rect x="70" y="180" width="160" height="40" />
        <rect x="70" y="0" width="40" height="180" />
        <rect transform="skewX(18)" x="150" y="80" width="40" height="220" />
    </g>
</svg>