<?xml version="1.0" encoding="UTF-8"?>
<svg version="1.1"
    xmlns="http://www.w3.org/2000/svg" viewBox="0 0 800 800">

    <defs>
        <linearGradient id="grad1" x1="0%" x2="0%" y1="0%" y2="100%">
            <stop offset="0%" stop-color="#1C94EA" />
            <stop offset="100%" stop-color="#032E54" />
        </linearGradient>
    </defs>

    <defs>
        <linearGradient id="grad2" x1="0%" x2="0%" y1="0%" y2="100%">
            <stop offset="0%" stop-color="#FF4128" />
            <stop offset="100%" stop-color="#89181C" />
        </linearGradient>
    </defs>

    <path d="M0 0 C12.53581917 -0.02326234 25.07163313 -0.0409855 37.60746956 -0.05181217 C43.42956434 -0.05701077 49.25164425 -0.06405296 55.07373047 -0.07543945 C60.70178242 -0.08637645 66.32982016 -0.09229956 71.95788193 -0.09487724 C74.09544981 -0.09671213 76.233017 -0.10029484 78.37057877 -0.10573006 C111.92952896 -0.18759766 111.92952896 -0.18759766 117 4 C119.12785662 12.51958374 115.87365604 22.27051179 113.79296875 30.55078125 C113.44048684 31.99742338 113.0892511 33.4443696 112.73913574 34.8915863 C111.97604161 38.03413534 111.20424028 41.17437034 110.42562866 44.31311035 C109.15207615 49.44730818 107.89790346 54.58613352 106.64575195 59.72558594 C104.78710905 67.34645298 102.91938902 74.96504982 101.046875 82.58251953 C97.84281835 95.62134233 94.66961567 108.66761265 91.5 121.71484375 C90.93999963 124.0196195 90.37999186 126.32439346 89.81997681 128.62916565 C88.96995778 132.12749772 88.1199519 135.62583298 87.27002907 139.12418842 C85.24660103 147.45192169 83.22045309 155.7789901 81.19287109 164.10571289 C73.37426153 196.21571685 65.58773306 228.33331374 57.83036995 260.45816517 C56.72556523 265.03333466 55.62063535 269.60847392 54.515625 274.18359375 C54.29636227 275.0914607 54.07709953 275.99932766 53.85119247 276.93470573 C50.36750017 291.35749774 46.87267855 305.7775719 43.37252235 320.1963768 C42.54943341 323.5871168 41.72650156 326.9778949 40.90361023 330.36868286 C36.48552343 348.57296313 36.48552343 348.57296313 34.52432251 356.64147949 C33.06829344 362.63176319 31.61365189 368.62238235 30.16015625 374.61328125 C29.93213633 375.55274471 29.7041164 376.49220818 29.46918678 377.46014023 C26.23733546 390.78381863 23.06706798 404.12029452 20.01295471 417.48591614 C19.75787643 418.59553207 19.50279816 419.70514801 19.23999023 420.84838867 C19.02237534 421.80396164 18.80476044 422.75953461 18.58055115 423.74406433 C18 426 18 426 17 428 C101.15 428 185.3 428 272 428 C270.74899972 434.88050152 269.46239835 441.63645134 267.828125 448.41796875 C267.62512787 449.27064835 267.42213074 450.12332794 267.21298218 451.00184631 C266.56209167 453.73123353 265.90659028 456.45947871 265.25 459.1875 C265.02656921 460.11776001 264.80313843 461.04802002 264.57293701 462.00646973 C263.45671596 466.65327144 262.33757081 471.29935448 261.21582031 475.94482422 C260.17709392 480.25248367 259.15957217 484.56469347 258.1484375 488.87890625 C257.64125885 491.00275563 257.13351126 493.12646929 256.625 495.25 C256.41133789 496.18094482 256.19767578 497.11188965 255.97753906 498.07104492 C254.76813046 503.03556348 253.5594031 507.16679666 250 511 C244.31541031 512.79078101 239.0560513 513.32486031 233.125 513.4140625 C231.91009888 513.44311172 231.91009888 513.44311172 230.6706543 513.4727478 C228.11387266 513.53196002 225.55704455 513.57869246 223 513.625 C221.2538879 513.66323367 219.50779358 513.70228843 217.76171875 513.7421875 C213.5079589 513.83761252 209.25411096 513.92185549 205 514 C210.82144799 519.34129782 216.68414582 524.50188359 223 529.25 C223.71784668 529.79374268 224.43569336 530.33748535 225.17529297 530.89770508 C242.85979786 544.23290191 260.88526641 556.80402993 280 568 C280.70044434 568.41330566 281.40088867 568.82661133 282.12255859 569.25244141 C292.94942859 575.63714917 303.91694351 581.72894156 314.99194336 587.67285156 C315.96139893 588.19331055 316.93085449 588.71376953 317.9296875 589.25 C318.78804199 589.70890625 319.64639648 590.1678125 320.53076172 590.640625 C323 592 323 592 325.44189453 593.671875 C328.61831157 595.32101689 330.4560762 595.42147167 334 595 C336.99463415 593.86330379 336.99463415 593.86330379 339.97265625 592.17578125 C341.10928711 591.56573242 342.24591797 590.95568359 343.41699219 590.32714844 C344.63263539 589.65645726 345.84779428 588.9848876 347.0625 588.3125 C348.32049196 587.62635975 349.57863157 586.94049012 350.83691406 586.25488281 C377.13825248 571.83728126 401.75883965 554.94154568 425 536 C425.8559375 535.31808594 426.711875 534.63617187 427.59375 533.93359375 C433.98681785 528.7989315 440.02172619 523.3642163 446.01171875 517.7734375 C448.3035841 515.63645686 450.62758757 513.54776652 453 511.5 C465.38988532 500.74651463 477.71401703 489.47317941 488.3359375 476.94140625 C490.29348772 474.65759766 492.33567323 472.46102266 494.375 470.25 C495.9234427 468.50599274 497.4647625 466.75564288 499 465 C499.43795898 464.51450684 499.87591797 464.02901367 500.32714844 463.52880859 C501.66858981 462.02416659 502.96155369 460.48760766 504.25 458.9375 C505.03890625 458.01839844 505.8278125 457.09929687 506.640625 456.15234375 C508.64967808 451.49341894 506.79819499 448.55871939 505 444 C503.69578136 440.90405313 502.29676458 437.86014302 500.8671875 434.8203125 C500.47105255 433.96807098 500.0749176 433.11582947 499.66677856 432.23776245 C498.40738777 429.53136734 497.14126855 426.82818279 495.875 424.125 C495.04904693 422.35176376 494.22352309 420.57832754 493.3984375 418.8046875 C487.98380259 407.17874669 482.50301062 395.58432618 477 384 C476.34 384 475.68 384 475 384 C473.27213338 386.00517855 471.65967472 388.01894191 470.0625 390.125 C469.06529382 391.41811502 468.0678926 392.71107967 467.0703125 394.00390625 C466.56016602 394.66922363 466.05001953 395.33454102 465.52441406 396.02001953 C463.18800741 399.05465405 460.8110394 402.05689287 458.4375 405.0625 C454.92969955 409.51998082 451.45144735 413.99876589 448 418.5 C444.0982969 423.58843894 440.160944 428.64736727 436.18676758 433.67944336 C433.79323942 436.7105692 431.41725023 439.75291947 429.0703125 442.8203125 C428.58747803 443.44687744 428.10464355 444.07344238 427.60717773 444.71899414 C426.69247049 445.90677649 425.78272189 447.09840235 424.87915039 448.29467773 C421.15883857 453.1046266 417.45795761 457.31004699 411.4375 459 C407.36902996 459 406.23452565 458.40899746 403 456 C401.02997646 453.73715052 399.36682019 451.29570095 397.6875 448.8125 C397.17606445 448.07273926 396.66462891 447.33297852 396.13769531 446.57080078 C391.06893701 439.19984322 386.13850254 431.73368816 381.19702148 424.27709961 C376.63829948 417.41081666 371.98243765 410.62247885 367.25 403.875 C360.32751559 393.9919455 353.61260162 383.98238638 346.94360352 373.92773438 C342.28587221 366.90933342 337.59721434 359.9138532 332.859375 352.94921875 C332.34411758 352.19108383 331.82886017 351.43294891 331.29798889 350.65184021 C328.79587467 346.9711763 326.28969759 343.29338766 323.77709961 339.61987305 C307.90351367 316.33963878 307.90351367 316.33963878 308.5703125 308.96484375 C309.64245002 304.06225129 311.89979557 299.91330315 316 297 C323.48034199 294.48491755 331.11583967 296.72863431 338 300 C342.05673494 302.88435326 345.68905999 306.08146664 349.33203125 309.46484375 C352.13874428 312.04807144 355.03935224 314.5204243 357.9375 317 C358.51588623 317.49862549 359.09427246 317.99725098 359.69018555 318.51098633 C364.35533134 322.51181018 369.16677363 326.29914495 374.02441406 330.06201172 C378.37753081 333.45527974 382.48184417 337.05771691 386.546875 340.79296875 C391.765182 345.48778317 397.15558098 350.10372065 403 354 C407.68471099 351.12671059 411.17068048 347.96911098 414.8125 343.875 C415.33384521 343.30023926 415.85519043 342.72547852 416.39233398 342.13330078 C418.74046224 339.53995318 421.06544288 336.92643023 423.390625 334.3125 C424.10734375 333.508125 424.8240625 332.70375 425.5625 331.875 C426.26117187 331.07964844 426.95984375 330.28429687 427.6796875 329.46484375 C429.43121055 327.60421909 431.16005689 325.93523721 433.0703125 324.25390625 C433.58779053 323.7842041 434.10526855 323.31450195 434.63842773 322.83056641 C436.10768804 321.50927416 437.60589355 320.22037782 439.10546875 318.93359375 C441.1986437 315.69240945 441.238859 315.28186091 440.5234375 311.7109375 C439.15862646 307.06596814 437.38833126 302.61400316 435.4375 298.1875 C435.05819336 297.31424072 434.67888672 296.44098145 434.28808594 295.54125977 C428.53009417 282.45581596 422.29648089 269.58140769 416.15872192 256.6713562 C412.8682141 249.74123142 409.64810055 242.78001409 406.4375 235.8125 C400.09310456 222.07745792 393.48160279 208.4765775 386.85673523 194.87532043 C382.35348284 185.62550839 377.91437583 176.34494156 373.47070312 167.06640625 C371.89550283 163.78212409 370.31538765 160.50023789 368.734375 157.21875 C367.92274902 155.53265625 367.92274902 155.53265625 367.09472656 153.8125 C366.06644427 151.67659459 365.03721836 149.54114308 364.00683594 147.40625 C356 130.76177004 356 130.76177004 356 128 C355.34 128 354.68 128 354 128 C353.83781982 128.53294678 353.67563965 129.06589355 353.50854492 129.61499023 C351.58145748 135.69080568 349.09966109 141.33693652 346.3125 147.0625 C345.91611328 147.88943359 345.51972656 148.71636719 345.11132812 149.56835938 C342.86820776 154.22660777 340.5729925 158.85681145 338.24874878 163.47509766 C333.66772216 172.58367968 329.26346932 181.77000519 324.90530396 190.98703003 C323.23458988 194.52033596 321.56005698 198.05182788 319.88578796 201.58345032 C319.05658946 203.33261838 318.22757664 205.08187448 317.39875793 206.83122253 C313.04019571 216.02994715 308.65145475 225.21404725 304.24951172 234.39208984 C302.96707181 237.06872585 301.68839498 239.74713669 300.41015625 242.42578125 C293.37060996 257.157056 286.20801889 271.82688102 279.03460693 286.49328613 C273.65219809 297.49934278 268.28514693 308.51050145 263.02563477 319.57592773 C260.43180163 325.0260622 257.80843526 330.4609787 255.1640625 335.88671875 C254.64641075 336.94913788 254.64641075 336.94913788 254.11830139 338.03302002 C252.67747164 340.98977149 251.23654801 343.94647615 249.79428101 346.90252686 C245.53159882 355.6436989 241.32103717 364.40627089 237.19921875 373.21484375 C236.61300751 374.46581093 236.61300751 374.46581093 236.01495361 375.74205017 C234.12038677 379.78726055 232.23319966 383.83567349 230.35693359 387.8894043 C229.67697182 389.34564031 228.99680711 390.80178159 228.31640625 392.2578125 C228.0088591 392.92896591 227.70131195 393.60011932 227.38444519 394.29161072 C225.22681342 398.88659329 225.22681342 398.88659329 223 400 C221.6568787 400.09141784 220.30933202 400.12194152 218.96310425 400.12025452 C217.69685715 400.12231651 217.69685715 400.12231651 216.4050293 400.12442017 C215.01320435 400.11902725 215.01320435 400.11902725 213.59326172 400.11352539 C212.12978806 400.11374443 212.12978806 400.11374443 210.63674927 400.1139679 C207.40103966 400.11326935 204.1653871 400.10547966 200.9296875 400.09765625 C198.69052156 400.09579186 196.45135521 400.09436806 194.21218872 400.09336853 C188.31027099 400.08954498 182.40837776 400.07971607 176.50646973 400.06866455 C170.48738944 400.05844694 164.4683052 400.05387016 158.44921875 400.04882812 C146.63280172 400.03809367 134.81640289 400.02101918 123 400 C124.32314996 395.94599358 125.78484263 392.15222307 127.65234375 388.31640625 C128.17538086 387.23665527 128.69841797 386.1569043 129.23730469 385.04443359 C130.07890137 383.32087646 130.07890137 383.32087646 130.9375 381.5625 C131.82923132 379.72769825 132.71984012 377.89235468 133.61032104 376.0569458 C134.21237856 374.81614109 134.81485822 373.57554112 135.41775513 372.33514404 C137.20374223 368.65713085 138.96699549 364.96948658 140.70703125 361.26953125 C145.21587325 351.69181254 149.88197201 342.21513455 154.75832939 332.82011795 C155.12597271 332.11147425 155.49361602 331.40283055 155.87240005 330.6727128 C156.59488478 329.28059512 157.31772761 327.88866318 158.04102731 326.49696875 C163.39907417 316.17907632 168.58636775 305.79052483 173.64536881 295.32301474 C183.51824598 274.90764578 193.63198892 254.61590751 203.79407358 234.34339046 C206.09910577 229.74359207 208.4013423 225.14239479 210.7038269 220.5413208 C216.50844516 208.94299184 222.31653989 197.34640531 228.125 185.75 C234.43780347 173.1465927 240.74991614 160.54284159 247.05813873 147.9371407 C249.77259906 142.5131341 252.48899017 137.09010069 255.20699048 131.66786718 C256.90111218 128.28717364 258.59351055 124.90561942 260.28548241 121.52384949 C261.05825054 119.98015631 261.83169764 118.43680277 262.60594749 116.89385223 C267.13798571 107.86119564 271.56540617 98.7885923 275.83839238 89.6300323 C278.2425463 84.50134606 280.80892881 79.48372026 283.5 74.5 C286.6850963 68.57797291 289.65918251 62.59495696 292.5 56.5 C296.70051297 47.49929376 301.26028484 38.72698634 306 30 C306.61488281 28.86691406 307.22976563 27.73382813 307.86328125 26.56640625 C308.87447866 24.71053319 309.8882686 22.85606685 310.90625 21.00390625 C311.62781062 19.68190412 312.32645128 18.34709743 313 17 C320.33845237 16.97409606 327.6768925 16.95690845 335.01538086 16.94506836 C337.49845825 16.94011913 339.98153287 16.9333581 342.46459961 16.92456055 C355.94768812 16.87807657 369.41100104 16.95891694 382.88671875 17.44140625 C384.56094658 17.49988991 384.56094658 17.49988991 386.26899719 17.55955505 C392.1861498 17.79539052 392.1861498 17.79539052 395 18 C396.19513718 18.05334503 397.39027435 18.10669006 398.62162781 18.16165161 C402 19 402 19 404.0071106 21.43745422 C404.53859711 22.52326279 405.07008362 23.60907135 405.61767578 24.7277832 C406.0706881 25.62614143 406.0706881 25.62614143 406.53285217 26.54264832 C407.52903657 28.53387486 408.48682213 30.54117293 409.4453125 32.55078125 C410.14185165 33.96308852 410.84061565 35.37430045 411.54147339 36.7844696 C413.39125879 40.52239331 415.20875117 44.27517738 417.02044678 48.03167725 C418.81634095 51.74006921 420.64436733 55.43251936 422.46875 59.12695312 C429.73065087 73.87100772 436.80732931 88.6977059 443.65432739 103.63911438 C448.16457885 113.46591207 453.01023118 123.11280301 457.87890625 132.765625 C462.26507562 141.48666351 466.44488806 150.30468383 470.63183594 159.12255859 C480.30665471 179.47006289 490.15817195 199.73295192 500 220 C500.79117964 221.62939392 501.58235799 223.25878847 502.37353516 224.88818359 C507.24775515 234.92607196 512.12333814 244.96329775 517 255 C519.95427068 255 521.45492221 253.51775346 523.8984375 251.87890625 C524.92090576 251.19924805 525.94337402 250.51958984 526.99682617 249.81933594 C527.54583588 249.45223511 528.09484558 249.08513428 528.66049194 248.70690918 C550.49740034 234.13109057 573.00417464 220.66583699 596 208 C596.96953613 207.46375 597.93907227 206.9275 598.93798828 206.375 C623.30581595 192.93723842 648.14990575 180.22613217 673.5625 168.875 C674.6858374 168.37210449 675.8091748 167.86920898 676.96655273 167.35107422 C684.61092739 164 684.61092739 164 688 164 C687.73492058 168.39389217 685.99453728 170.38972135 682.79833984 173.29931641 C682.2255127 173.79866699 681.65268555 174.29801758 681.0625 174.8125 C680.4742041 175.34020996 679.8859082 175.86791992 679.27978516 176.41162109 C675.13165851 180.10047076 670.84382867 183.58765164 666.46875 187.00390625 C662.69763937 190.05301627 659.15759416 193.34246947 655.58984375 196.625 C652.77555966 199.20582161 649.90916763 201.7180036 647.02734375 204.22265625 C643.79321709 207.0579696 640.60977235 209.94926764 637.41796875 212.83203125 C635.4009831 214.64047557 633.36508404 216.4198734 631.3125 218.1875 C616.19687587 231.44048916 602.07035396 245.74184984 587.86425781 259.95043945 C584.73977139 263.0750281 581.60841391 266.19263363 578.47532845 269.30859661 C576.02666221 271.74606322 573.58263658 274.18814376 571.13982773 276.63147926 C569.98781218 277.78233051 568.83421215 278.93159834 567.67886734 280.07910728 C561.40862062 286.31072036 555.48188646 292.58294851 550.021698 299.54890442 C547.83025356 302.20579965 545.46764934 304.59998158 543 307 C545.57622119 315.69716776 549.48124214 323.71330122 553.375 331.875 C554.09575434 333.39565483 554.81612695 334.91649064 555.53613281 336.4375 C560.42626509 346.75410693 565.38274237 357.03843831 570.35400391 367.31616211 C574.40028221 375.70130344 578.31867013 384.14039689 582.20239258 392.60180664 C586.55674793 402.07427819 590.98515404 411.51074859 595.4375 420.9375 C595.80174072 421.70875214 596.16598145 422.48000427 596.54125977 423.27462769 C601.74477927 434.28625429 607.00977085 445.26649181 612.3125 456.23071289 C617.83547157 467.6792278 623.19769408 479.20256162 628.49560547 490.75683594 C629.54757704 493.02466948 630.62136989 495.28245073 631.71142578 497.53222656 C632.53682861 499.2526416 632.53682861 499.2526416 633.37890625 501.0078125 C633.88107666 502.03793457 634.38324707 503.06805664 634.90063477 504.12939453 C636.01521918 507.03973952 636.09086178 508.93128102 636 512 C626.25001369 512.03052321 616.50002553 512.05094858 606.75 512.0625 C606.03254986 512.06335602 605.31509972 512.06421204 604.57590866 512.06509399 C582.03633805 512.08886578 559.52484154 511.89708086 537 511 C536.46890625 509.90300781 535.9378125 508.80601562 535.390625 507.67578125 C534.67740839 506.22119474 533.96384852 504.7667765 533.25 503.3125 C532.90195312 502.59126953 532.55390625 501.87003906 532.1953125 501.12695312 C530.16562033 497.01118844 528.04765549 493.48009309 525 490 C523.1444613 491.99874119 521.29055876 493.99896158 519.4375 496 C518.92380859 496.55300781 518.41011719 497.10601563 517.88085938 497.67578125 C515.11375938 500.66631168 512.39587547 503.68757897 509.7355957 506.77368164 C506.26791726 510.74250398 502.64424508 514.51690444 498.921875 518.24609375 C498.26979065 518.9015065 497.6177063 519.55691925 496.94586182 520.23219299 C495.57572761 521.60735046 494.20427202 522.98119255 492.83154297 524.35375977 C490.76369339 526.42379215 488.70398475 528.50169673 486.64453125 530.58007812 C479.39588271 537.85893301 472.0645548 544.62801694 464 551 C462.12343887 552.62730509 460.31503543 554.30282402 458.5 556 C454.0301488 560.11378909 449.40955107 563.97087297 444.68359375 567.78515625 C442.05291443 569.95632827 439.52057576 572.20241357 437 574.5 C432.77635723 578.34510875 428.4130207 581.96758171 423.97265625 585.55859375 C420.66247603 588.27720431 417.42528068 591.07110253 414.1875 593.875 C407.90431817 599.29386956 401.46353801 604.46922848 394.89208984 609.53320312 C392.86118529 611.10761275 390.84655072 612.70156457 388.83203125 614.296875 C373.40996795 626.42293926 357.96505017 637.10477135 337.6875 637.25 C336.97916016 637.270625 336.27082031 637.29125 335.54101562 637.3125 C325.58997285 637.38467438 317.65798725 633.0277043 309.125 628.3125 C307.57872925 627.46570679 307.57872925 627.46570679 306.0012207 626.60180664 C267.06594815 605.10607865 229.68381599 580.87567564 195 553 C194.071875 552.25492188 193.14375 551.50984375 192.1875 550.7421875 C189.44112758 548.51475173 186.71681416 546.26338725 184 544 C183.46938965 543.56107422 182.9387793 543.12214844 182.39208984 542.66992188 C175.47588964 536.93268744 168.94342583 531.01699971 162.6875 524.5625 C155.23223753 516.91581307 148.60460873 512.02857151 137.60535717 511.87695217 C135.80739996 511.87275512 134.00942479 511.87409619 132.21147156 511.87974548 C131.21897976 511.87889106 130.22648797 511.87803663 129.20392066 511.87715632 C125.87510523 511.87550795 122.54634009 511.88101241 119.2175293 511.88647461 C116.83258566 511.88675665 114.44764195 511.88659843 112.06269836 511.8860321 C106.25672846 511.88577461 100.45077505 511.89011273 94.64480891 511.89646976 C87.88837861 511.90362007 81.13195066 511.90511509 74.37551711 511.90625793 C62.32675727 511.90844594 50.27800421 511.91509921 38.22924805 511.92456055 C26.52579787 511.93374116 14.82234954 511.94081882 3.11889648 511.94506836 C2.39735717 511.94533108 1.67581786 511.94559381 0.93241372 511.94586449 C-2.68737834 511.94716954 -6.30717041 511.94843324 -9.92696249 511.94967639 C-39.95131308 511.96004117 -69.97565575 511.97772706 -100 512 C-100.25802218 498.39672263 -100.25802218 498.39672263 -98.6015625 491.83862305 C-98.29213211 490.58185257 -97.98270172 489.32508209 -97.66389465 488.03022766 C-97.31788523 486.69065006 -96.97157796 485.35114937 -96.625 484.01171875 C-96.26479749 482.57281688 -95.90596359 481.13357183 -95.54838562 479.6940155 C-94.78340161 476.62675042 -94.00893691 473.56210488 -93.22665405 470.49920654 C-91.96885142 465.5744115 -90.73293344 460.64426652 -89.49926758 455.71337891 C-87.60153752 448.13831792 -85.69020652 440.56677727 -83.77194881 432.99689102 C-81.02815148 422.16810945 -78.30887557 411.3331892 -75.59481812 400.49691772 C-74.98209747 398.05100188 -74.36882289 395.60522476 -73.7550354 393.15957642 C-65.45330954 360.06608526 -57.4249836 326.9053936 -49.36028862 293.75353813 C-47.77431468 287.23406435 -46.18804891 280.7146616 -44.6015625 274.1953125 C-44.44344101 273.54551186 -44.28531953 272.89571122 -44.12240648 272.22621965 C-37.70239526 245.84415028 -31.23264668 219.4744058 -24.74887085 193.10794067 C-15.80570373 156.74005155 -6.90502579 120.36240092 1.89448929 83.9594574 C2.6192813 80.96115696 3.34440129 77.96293597 4.06954956 74.96472168 C5.18843827 70.33763323 6.3060537 65.71023918 7.42249489 61.08255959 C7.82850871 59.39993318 8.23480114 57.71737397 8.64139366 56.03488731 C9.19371275 53.74867227 9.7447587 51.4621543 10.29541016 49.17553711 C10.7561644 47.26495766 10.7561644 47.26495766 11.22622681 45.31578064 C13.5469309 35.37107621 13.79280152 26.67475274 10 17 C8.11293271 14.18290569 6.09965303 11.68117657 3.83984375 9.15625 C1.19744629 6.05942749 0 4.09990623 0 0 Z " fill="url(#grad2)" transform="translate(109,89)"/>

    <path d="M0 0 C12.53581917 -0.02326234 25.07163313 -0.0409855 37.60746956 -0.05181217 C43.42956434 -0.05701077 49.25164425 -0.06405296 55.07373047 -0.07543945 C60.70178242 -0.08637645 66.32982016 -0.09229956 71.95788193 -0.09487724 C74.09544981 -0.09671213 76.233017 -0.10029484 78.37057877 -0.10573006 C111.92952896 -0.18759766 111.92952896 -0.18759766 117 4 C119.12785662 12.51958374 115.87365604 22.27051179 113.79296875 30.55078125 C113.44048684 31.99742338 113.0892511 33.4443696 112.73913574 34.8915863 C111.97604161 38.03413534 111.20424028 41.17437034 110.42562866 44.31311035 C109.15207615 49.44730818 107.89790346 54.58613352 106.64575195 59.72558594 C104.78710905 67.34645298 102.91938902 74.96504982 101.046875 82.58251953 C97.84281835 95.62134233 94.66961567 108.66761265 91.5 121.71484375 C90.93999963 124.0196195 90.37999186 126.32439346 89.81997681 128.62916565 C88.96995778 132.12749772 88.1199519 135.62583298 87.27002907 139.12418842 C85.24660103 147.45192169 83.22045309 155.7789901 81.19287109 164.10571289 C73.37426153 196.21571685 65.58773306 228.33331374 57.83036995 260.45816517 C56.72556523 265.03333466 55.62063535 269.60847392 54.515625 274.18359375 C54.29636227 275.0914607 54.07709953 275.99932766 53.85119247 276.93470573 C50.36750017 291.35749774 46.87267855 305.7775719 43.37252235 320.1963768 C42.54943341 323.5871168 41.72650156 326.9778949 40.90361023 330.36868286 C36.48552343 348.57296313 36.48552343 348.57296313 34.52432251 356.64147949 C33.06829344 362.63176319 31.61365189 368.62238235 30.16015625 374.61328125 C29.93213633 375.55274471 29.7041164 376.49220818 29.46918678 377.46014023 C26.23733546 390.78381863 23.06706798 404.12029452 20.01295471 417.48591614 C19.75787643 418.59553207 19.50279816 419.70514801 19.23999023 420.84838867 C19.02237534 421.80396164 18.80476044 422.75953461 18.58055115 423.74406433 C18 426 18 426 17 428 C101.15 428 185.3 428 272 428 C270.74899972 434.88050152 269.46239835 441.63645134 267.828125 448.41796875 C267.62512787 449.27064835 267.42213074 450.12332794 267.21298218 451.00184631 C266.56209167 453.73123353 265.90659028 456.45947871 265.25 459.1875 C265.02656921 460.11776001 264.80313843 461.04802002 264.57293701 462.00646973 C263.45671596 466.65327144 262.33757081 471.29935448 261.21582031 475.94482422 C260.17709392 480.25248367 259.15957217 484.56469347 258.1484375 488.87890625 C257.64125885 491.00275563 257.13351126 493.12646929 256.625 495.25 C256.41133789 496.18094482 256.19767578 497.11188965 255.97753906 498.07104492 C254.76813046 503.03556348 253.5594031 507.16679666 250 511 C244.31541031 512.79078101 239.0560513 513.32486031 233.125 513.4140625 C231.91009888 513.44311172 231.91009888 513.44311172 230.6706543 513.4727478 C228.11387266 513.53196002 225.55704455 513.57869246 223 513.625 C221.2538879 513.66323367 219.50779358 513.70228843 217.76171875 513.7421875 C213.5079589 513.83761252 209.25411096 513.92185549 205 514 C210.82144799 519.34129782 216.68414582 524.50188359 223 529.25 C223.71784668 529.79374268 224.43569336 530.33748535 225.17529297 530.89770508 C242.85979786 544.23290191 260.88526641 556.80402993 280 568 C280.70044434 568.41330566 281.40088867 568.82661133 282.12255859 569.25244141 C292.94942859 575.63714917 303.91694351 581.72894156 314.99194336 587.67285156 C315.96139893 588.19331055 316.93085449 588.71376953 317.9296875 589.25 C318.78804199 589.70890625 319.64639648 590.1678125 320.53076172 590.640625 C323 592 323 592 325.44189453 593.671875 C328.61831157 595.32101689 330.4560762 595.42147167 334 595 C336.99463415 593.86330379 336.99463415 593.86330379 339.97265625 592.17578125 C341.10928711 591.56573242 342.24591797 590.95568359 343.41699219 590.32714844 C344.63263539 589.65645726 345.84779428 588.9848876 347.0625 588.3125 C348.32049196 587.62635975 349.57863157 586.94049012 350.83691406 586.25488281 C377.13825248 571.83728126 401.75883965 554.94154568 425 536 C425.8559375 535.31808594 426.711875 534.63617187 427.59375 533.93359375 C433.98681785 528.7989315 440.02172619 523.3642163 446.01171875 517.7734375 C448.3035841 515.63645686 450.62758757 513.54776652 453 511.5 C465.38988532 500.74651463 477.71401703 489.47317941 488.3359375 476.94140625 C490.29348772 474.65759766 492.33567323 472.46102266 494.375 470.25 C499.32183755 464.78378708 503.66908444 458.95884836 508 453 C510.28125 453.0703125 510.28125 453.0703125 513 454 C514.43808575 456.33384256 515.47256775 458.36877095 516.5 460.875 C517.09634113 462.2474015 517.69269539 463.61979729 518.2890625 464.9921875 C518.5768457 465.67249023 518.86462891 466.35279297 519.16113281 467.05371094 C520.31938546 469.74101888 521.60479423 472.36413948 522.875 475 C524.72305042 479.12445689 526 482.45736565 526 487 C524.08461728 490.7042779 521.69278115 493.63237886 518.875 496.6875 C518.17117188 497.45449219 517.46734375 498.22148438 516.7421875 499.01171875 C516.11739502 499.68738892 516.11739502 499.68738892 515.47998047 500.37670898 C514.37883993 501.58447597 513.29143797 502.80479725 512.21142578 504.03149414 C505.77291967 511.31154148 498.97881363 518.20733883 492.10791016 525.07739258 C490.13023246 527.05726174 488.16071808 529.04501688 486.19140625 531.03320312 C479.79573178 537.45666045 473.37423981 543.57799196 466.26123047 549.20874023 C463.54685417 551.35896469 461.02865294 553.6355453 458.5 556 C454.0301488 560.11378909 449.40955107 563.97087297 444.68359375 567.78515625 C442.05291443 569.95632827 439.52057576 572.20241357 437 574.5 C432.77635723 578.34510875 428.4130207 581.96758171 423.97265625 585.55859375 C420.66247603 588.27720431 417.42528068 591.07110253 414.1875 593.875 C407.90431817 599.29386956 401.46353801 604.46922848 394.89208984 609.53320312 C392.86118529 611.10761275 390.84655072 612.70156457 388.83203125 614.296875 C373.40996795 626.42293926 357.96505017 637.10477135 337.6875 637.25 C336.97916016 637.270625 336.27082031 637.29125 335.54101562 637.3125 C325.58997285 637.38467438 317.65798725 633.0277043 309.125 628.3125 C307.57872925 627.46570679 307.57872925 627.46570679 306.0012207 626.60180664 C267.06594815 605.10607865 229.68381599 580.87567564 195 553 C194.071875 552.25492188 193.14375 551.50984375 192.1875 550.7421875 C189.44112758 548.51475173 186.71681416 546.26338725 184 544 C183.46938965 543.56107422 182.9387793 543.12214844 182.39208984 542.66992188 C175.47588964 536.93268744 168.94342583 531.01699971 162.6875 524.5625 C155.23223753 516.91581307 148.60460873 512.02857151 137.60535717 511.87695217 C135.80739996 511.87275512 134.00942479 511.87409619 132.21147156 511.87974548 C131.21897976 511.87889106 130.22648797 511.87803663 129.20392066 511.87715632 C125.87510523 511.87550795 122.54634009 511.88101241 119.2175293 511.88647461 C116.83258566 511.88675665 114.44764195 511.88659843 112.06269836 511.8860321 C106.25672846 511.88577461 100.45077505 511.89011273 94.64480891 511.89646976 C87.88837861 511.90362007 81.13195066 511.90511509 74.37551711 511.90625793 C62.32675727 511.90844594 50.27800421 511.91509921 38.22924805 511.92456055 C26.52579787 511.93374116 14.82234954 511.94081882 3.11889648 511.94506836 C2.39735717 511.94533108 1.67581786 511.94559381 0.93241372 511.94586449 C-2.68737834 511.94716954 -6.30717041 511.94843324 -9.92696249 511.94967639 C-39.95131308 511.96004117 -69.97565575 511.97772706 -100 512 C-100.25802218 498.39672263 -100.25802218 498.39672263 -98.6015625 491.83862305 C-98.29213211 490.58185257 -97.98270172 489.32508209 -97.66389465 488.03022766 C-97.31788523 486.69065006 -96.97157796 485.35114937 -96.625 484.01171875 C-96.26479749 482.57281688 -95.90596359 481.13357183 -95.54838562 479.6940155 C-94.78340161 476.62675042 -94.00893691 473.56210488 -93.22665405 470.49920654 C-91.96885142 465.5744115 -90.73293344 460.64426652 -89.49926758 455.71337891 C-87.60153752 448.13831792 -85.69020652 440.56677727 -83.77194881 432.99689102 C-81.02815148 422.16810945 -78.30887557 411.3331892 -75.59481812 400.49691772 C-74.98209747 398.05100188 -74.36882289 395.60522476 -73.7550354 393.15957642 C-65.45330954 360.06608526 -57.4249836 326.9053936 -49.36028862 293.75353813 C-47.77431468 287.23406435 -46.18804891 280.7146616 -44.6015625 274.1953125 C-44.44344101 273.54551186 -44.28531953 272.89571122 -44.12240648 272.22621965 C-37.70239526 245.84415028 -31.23264668 219.4744058 -24.74887085 193.10794067 C-15.80570373 156.74005155 -6.90502579 120.36240092 1.89448929 83.9594574 C2.6192813 80.96115696 3.34440129 77.96293597 4.06954956 74.96472168 C5.18843827 70.33763323 6.3060537 65.71023918 7.42249489 61.08255959 C7.82850871 59.39993318 8.23480114 57.71737397 8.64139366 56.03488731 C9.19371275 53.74867227 9.7447587 51.4621543 10.29541016 49.17553711 C10.7561644 47.26495766 10.7561644 47.26495766 11.22622681 45.31578064 C13.5469309 35.37107621 13.79280152 26.67475274 10 17 C8.11293271 14.18290569 6.09965303 11.68117657 3.83984375 9.15625 C1.19744629 6.05942749 0 4.09990623 0 0 Z " fill="url(#grad1)" transform="translate(109,89)"/>

    <path d="M0 0 C6.41935988 2.54103856 11.93715946 6.96533924 17.4375 11.0625 C90.08569475 64.19259182 177.55237744 90.60596764 308 102 C308.78804371 135.50196066 306.28857941 168.95740544 302.41113281 202.21972656 C301.1992939 212.66146776 300.31177633 223.07464221 299.85913086 233.58276367 C299.50901897 239.76475358 298.79056144 244.94319177 295 250 C284.92099161 258.74680301 270.97464884 264.35211248 258 267 C256.28221633 263.56443266 257.68307109 259.72243641 258.29296875 256.04296875 C258.59506461 254.14564299 258.89680695 252.24826091 259.19824219 250.35083008 C259.44060608 248.84499863 259.44060608 248.84499863 259.68786621 247.30874634 C264.72064386 215.86864132 268.03838742 184.52895934 270.04980469 152.75708008 C270.1069313 151.86842255 270.16405792 150.97976501 270.22291565 150.06417847 C270.32919701 148.39791246 270.43220717 146.73143336 270.53135681 145.06472778 C270.75224773 141.59331572 271.08673728 138.35407245 272 135 C270.87851562 135.04640625 269.75703125 135.0928125 268.6015625 135.140625 C203.54619584 136.91356545 135.37621847 115.90893698 77 89 C75.96101563 88.52304688 74.92203125 88.04609375 73.8515625 87.5546875 C54.44749742 78.59527967 35.73192597 68.61739077 17.88818359 56.83422852 C6.94160971 49.4182055 6.94160971 49.4182055 -5 44 C-7.53015421 45.25277426 -7.53015421 45.25277426 -10.2421875 47.1640625 C-11.29760742 47.86764893 -12.35302734 48.57123535 -13.44042969 49.29614258 C-14.27979065 49.86554062 -14.27979065 49.86554062 -15.1361084 50.44644165 C-18.07864283 52.44078593 -21.04540916 54.39863181 -24.0078125 56.36328125 C-24.60416504 56.7602269 -25.20051758 57.15717255 -25.81494141 57.56614685 C-40.57312218 67.38149352 -55.75442296 76.29436396 -71.40234375 84.61083984 C-73.82136177 85.90446884 -76.22478366 87.22268227 -78.625 88.55078125 C-109.41131231 105.4253991 -151.04381849 125.19853938 -187 124 C-187.66 123.67 -188.32 123.34 -189 123 C-188.462719 115.22612601 -187.33119084 107.7389357 -185.6875 100.125 C-185.48705078 99.11953125 -185.28660156 98.1140625 -185.08007812 97.078125 C-184.87189453 96.10617188 -184.66371094 95.13421875 -184.44921875 94.1328125 C-184.26705811 93.26543457 -184.08489746 92.39805664 -183.8972168 91.50439453 C-182.74810372 88.2968838 -181.42052432 86.4072988 -179 84 C-175.9609375 82.76489258 -175.9609375 82.76489258 -172.375 81.89453125 C-171.72434067 81.72927444 -171.07368134 81.56401764 -170.40330505 81.39375305 C-169.00277594 81.03839368 -167.60033149 80.6905146 -166.19625854 80.34942627 C-162.44222461 79.43166573 -158.70758561 78.44145024 -154.97265625 77.44921875 C-154.21412857 77.24820557 -153.45560089 77.04719238 -152.67408752 76.84008789 C-132.32030435 71.37392905 -112.87947417 63.29294137 -94 54 C-92.98341309 53.50129395 -91.96682617 53.00258789 -90.91943359 52.48876953 C-68.05506802 41.17264045 -46.60178459 28.01941102 -26.64404297 12.12353516 C-24.15311671 10.14514517 -21.64026954 8.19729751 -19.125 6.25 C-18.36405029 5.62859131 -17.60310059 5.00718262 -16.8190918 4.36694336 C-11.32779594 0.15144526 -6.90420377 -1.47581705 0 0 Z " fill="url(#grad1)" transform="translate(448,2)"/>

    <path d="M0 0 C-0.43708442 7.47907085 -1.99364211 14.16987676 -4.24609375 21.296875 C-4.57319839 22.35724976 -4.90030304 23.41762451 -5.23731995 24.51013184 C-6.29437262 27.9265136 -7.36543987 31.33830094 -8.4375 34.75 C-9.16649707 37.09327475 -9.89501102 39.43669986 -10.62304688 41.78027344 C-15.86215008 58.59397643 -21.26663638 75.34795125 -27 92 C-28.32 92 -29.64 92 -31 92 C-31.36182373 90.95042114 -31.36182373 90.95042114 -31.73095703 89.87963867 C-32.85232694 86.64536898 -33.9885649 83.41650549 -35.125 80.1875 C-35.50398437 79.08728516 -35.88296875 77.98707031 -36.2734375 76.85351562 C-38.58291001 70.32925579 -41.23088059 64.3606297 -44.73681641 58.38818359 C-46.7396106 54.60168711 -47.66776127 51.25883298 -47 47 C-41.0301591 32.14703585 -24.92552773 18.77960395 -12.84375 8.56640625 C-11.48699171 7.4137366 -10.15728445 6.2290374 -8.84375 5.02734375 C-8.1321875 4.37894531 -7.420625 3.73054688 -6.6875 3.0625 C-6.05199219 2.47597656 -5.41648437 1.88945312 -4.76171875 1.28515625 C-3 0 -3 0 0 0 Z " fill="url(#grad1)" transform="translate(727,355)"/>

</svg>
