<?xml version="1.0" encoding="UTF-8"?>
<!DOCTYPE svg PUBLIC "-//W3C//DTD SVG 1.1//EN" "http://www.w3.org/Graphics/SVG/1.1/DTD/svg11.dtd">
<svg xmlns="http://www.w3.org/2000/svg" version="1.1" width="100px" height="100px" style="shape-rendering:geometricPrecision; text-rendering:geometricPrecision; image-rendering:optimizeQuality; fill-rule:evenodd; clip-rule:evenodd" xmlns:xlink="http://www.w3.org/1999/xlink">
<g><path style="opacity:1" fill="#87e1f0" d="M 39.5,-0.5 C 46.1667,-0.5 52.8333,-0.5 59.5,-0.5C 63.8301,0.947247 68.1634,2.61391 72.5,4.5C 72.5,4.83333 72.5,5.16667 72.5,5.5C 70.8333,5.5 69.1667,5.5 67.5,5.5C 66.1667,5.5 64.8333,5.5 63.5,5.5C 50.402,6.82095 37.402,6.82095 24.5,5.5C 29.4228,3.08632 34.4228,1.08632 39.5,-0.5 Z"/></g>
<g><path style="opacity:0.992" fill="#a9e9dd" d="M 24.5,5.5 C 37.402,6.82095 50.402,6.82095 63.5,5.5C 63.7911,6.64911 64.6244,7.31577 66,7.5C 68.3595,7.67601 68.8595,7.00934 67.5,5.5C 69.1667,5.5 70.8333,5.5 72.5,5.5C 71.8505,7.43525 71.5172,9.43525 71.5,11.5C 70.5,11.5 69.5,11.5 68.5,11.5C 66.1667,11.5 63.8333,11.5 61.5,11.5C 46.5,11.5 31.5,11.5 16.5,11.5C 18.8599,9.14675 21.5265,7.14675 24.5,5.5 Z"/></g>
<g><path style="opacity:1" fill="#f58d25" d="M 63.5,5.5 C 64.8333,5.5 66.1667,5.5 67.5,5.5C 68.8595,7.00934 68.3595,7.67601 66,7.5C 64.6244,7.31577 63.7911,6.64911 63.5,5.5 Z"/></g>
<g><path style="opacity:0.999" fill="#c5f1cf" d="M 16.5,11.5 C 31.5,11.5 46.5,11.5 61.5,11.5C 62.1522,12.7251 63.3189,13.3917 65,13.5C 66.6811,13.3917 67.8478,12.7251 68.5,11.5C 69.5,11.5 70.5,11.5 71.5,11.5C 71.5,12.8333 71.5,14.1667 71.5,15.5C 51.8333,15.5 32.1667,15.5 12.5,15.5C 13.5,13.8333 14.8333,12.5 16.5,11.5 Z"/></g>
<g><path style="opacity:1" fill="#f49129" d="M 61.5,11.5 C 63.8333,11.5 66.1667,11.5 68.5,11.5C 67.8478,12.7251 66.6811,13.3917 65,13.5C 63.3189,13.3917 62.1522,12.7251 61.5,11.5 Z"/></g>
<g><path style="opacity:1" fill="#d7f5c5" d="M 12.5,15.5 C 32.1667,15.5 51.8333,15.5 71.5,15.5C 71.5,15.8333 71.5,16.1667 71.5,16.5C 69.5853,16.2155 67.9187,16.5489 66.5,17.5C 65.0413,17.4326 63.7079,17.7659 62.5,18.5C 56.5,18.5 50.5,18.5 44.5,18.5C 44.38,17.4138 43.7133,16.7472 42.5,16.5C 40.484,17.1776 38.484,17.8443 36.5,18.5C 27.5,18.5 18.5,18.5 9.5,18.5C 10.1667,17.1667 11.1667,16.1667 12.5,15.5 Z"/></g>
<g><path style="opacity:0.96" fill="#feb809" d="M 72.5,4.5 C 80.0637,8.06314 86.0637,13.3965 90.5,20.5C 86.3155,21.1664 81.9822,21.8331 77.5,22.5C 79.2932,25.5663 81.9599,27.3996 85.5,28C 88.8168,28.4983 92.1501,28.665 95.5,28.5C 95.8333,29.1667 96.1667,29.8333 96.5,30.5C 89.3587,32.6543 83.0254,31.321 77.5,26.5C 74.4957,23.8339 72.4957,20.5006 71.5,16.5C 71.5,16.1667 71.5,15.8333 71.5,15.5C 71.5,14.1667 71.5,12.8333 71.5,11.5C 71.5172,9.43525 71.8505,7.43525 72.5,5.5C 72.5,5.16667 72.5,4.83333 72.5,4.5 Z"/></g>
<g><path style="opacity:1" fill="#fb8d25" d="M 66.5,17.5 C 67.2389,17.369 67.9056,17.5357 68.5,18C 67.0001,19.1145 65.3334,19.9479 63.5,20.5C 62.7025,20.0431 62.3691,19.3764 62.5,18.5C 63.7079,17.7659 65.0413,17.4326 66.5,17.5 Z"/></g>
<g><path style="opacity:1" fill="#f0f9b4" d="M 9.5,18.5 C 18.5,18.5 27.5,18.5 36.5,18.5C 34.831,20.5089 33.1643,22.5089 31.5,24.5C 28.3751,22.6488 25.0417,22.1488 21.5,23C 19.5743,23.4224 18.5743,24.5891 18.5,26.5C 14.2648,25.564 9.93147,25.2307 5.5,25.5C 6.56855,23.0313 7.90189,20.6979 9.5,18.5 Z"/></g>
<g><path style="opacity:1" fill="#f3f8b1" d="M 66.5,17.5 C 67.9187,16.5489 69.5853,16.2155 71.5,16.5C 72.4957,20.5006 74.4957,23.8339 77.5,26.5C 76.791,27.404 75.791,27.7373 74.5,27.5C 74.1583,26.6618 73.4916,26.3284 72.5,26.5C 71.2905,26.0679 70.2905,25.4013 69.5,24.5C 70.8847,23.6977 70.718,23.0311 69,22.5C 67.5405,22.8082 66.3739,23.4749 65.5,24.5C 62.3896,25.0885 59.3896,25.7552 56.5,26.5C 52.8966,23.0744 48.5633,21.4077 43.5,21.5C 43.2627,20.209 43.596,19.209 44.5,18.5C 50.5,18.5 56.5,18.5 62.5,18.5C 62.3691,19.3764 62.7025,20.0431 63.5,20.5C 65.3334,19.9479 67.0001,19.1145 68.5,18C 67.9056,17.5357 67.2389,17.369 66.5,17.5 Z"/></g>
<g><path style="opacity:1" fill="#ff8e1f" d="M 69.5,24.5 C 68.0387,25.6857 66.7054,25.6857 65.5,24.5C 66.3739,23.4749 67.5405,22.8082 69,22.5C 70.718,23.0311 70.8847,23.6977 69.5,24.5 Z"/></g>
<g><path style="opacity:0.958" fill="#ffa800" d="M 90.5,20.5 C 92.653,22.7937 94.3197,25.4604 95.5,28.5C 92.1501,28.665 88.8168,28.4983 85.5,28C 81.9599,27.3996 79.2932,25.5663 77.5,22.5C 81.9822,21.8331 86.3155,21.1664 90.5,20.5 Z"/></g>
<g><path style="opacity:1" fill="#40960f" d="M 44.5,18.5 C 43.596,19.209 43.2627,20.209 43.5,21.5C 48.5633,21.4077 52.8966,23.0744 56.5,26.5C 57.2894,27.915 57.9561,29.415 58.5,31C 58.1639,32.0299 57.4972,32.5299 56.5,32.5C 50.5308,32.1908 49.8641,33.8574 54.5,37.5C 54.8333,38.8333 55.1667,40.1667 55.5,41.5C 55.5,42.5 55.5,43.5 55.5,44.5C 49.442,43.7072 44.1087,41.3738 39.5,37.5C 35.0864,29.0801 33.4197,29.7467 34.5,39.5C 32.7322,45.7023 29.8988,51.369 26,56.5C 25.2564,54.1003 24.4231,51.767 23.5,49.5C 23.6646,46.4816 23.498,43.4816 23,40.5C 21.0218,43.6452 18.5218,46.3119 15.5,48.5C 14.5159,45.5719 14.1826,42.5719 14.5,39.5C 15.3627,37.5786 16.0293,35.5786 16.5,33.5C 18.2959,32.2073 19.9625,30.7073 21.5,29C 20.6266,27.955 19.6266,27.1217 18.5,26.5C 18.5743,24.5891 19.5743,23.4224 21.5,23C 25.0417,22.1488 28.3751,22.6488 31.5,24.5C 33.1643,22.5089 34.831,20.5089 36.5,18.5C 38.484,17.8443 40.484,17.1776 42.5,16.5C 43.7133,16.7472 44.38,17.4138 44.5,18.5 Z"/></g>
<g><path style="opacity:1" fill="#6dd537" d="M 51.5,26.5 C 53.9124,26.244 55.5791,27.244 56.5,29.5C 52.514,31.0439 48.8473,30.5439 45.5,28C 47.4406,27.2571 49.2739,27.4238 51,28.5C 51.4643,27.9056 51.631,27.2389 51.5,26.5 Z"/></g>
<g><path style="opacity:0.963" fill="#f8e5a0" d="M 5.5,25.5 C 9.93147,25.2307 14.2648,25.564 18.5,26.5C 19.6266,27.1217 20.6266,27.955 21.5,29C 19.9625,30.7073 18.2959,32.2073 16.5,33.5C 15.469,32.7515 14.3024,32.0848 13,31.5C 9.60636,32.4558 6.10636,32.7892 2.5,32.5C 2.70732,29.7594 3.70732,27.4261 5.5,25.5 Z"/></g>
<g><path style="opacity:1" fill="#fae39d" d="M 65.5,24.5 C 66.7054,25.6857 68.0387,25.6857 69.5,24.5C 70.2905,25.4013 71.2905,26.0679 72.5,26.5C 71.5244,27.8149 70.5244,29.1482 69.5,30.5C 71.7329,31.0161 73.3996,30.0161 74.5,27.5C 75.791,27.7373 76.791,27.404 77.5,26.5C 83.0254,31.321 89.3587,32.6543 96.5,30.5C 97.038,32.1172 97.3713,33.7839 97.5,35.5C 95.1667,35.5 92.8333,35.5 90.5,35.5C 90.1583,34.6618 89.4916,34.3284 88.5,34.5C 84.8384,33.8354 81.5051,32.5021 78.5,30.5C 77.2223,30.7822 76.2223,31.4489 75.5,32.5C 68.9431,32.653 62.6097,32.653 56.5,32.5C 57.4972,32.5299 58.1639,32.0299 58.5,31C 57.9561,29.415 57.2894,27.915 56.5,26.5C 59.3896,25.7552 62.3896,25.0885 65.5,24.5 Z"/></g>
<g><path style="opacity:1" fill="#ff8920" d="M 72.5,26.5 C 73.4916,26.3284 74.1583,26.6618 74.5,27.5C 73.3996,30.0161 71.7329,31.0161 69.5,30.5C 70.5244,29.1482 71.5244,27.8149 72.5,26.5 Z"/></g>
<g><path style="opacity:1" fill="#fe8a18" d="M 78.5,30.5 C 78.2488,32.1703 77.5822,33.6703 76.5,35C 74.2385,35.2071 73.9052,34.3738 75.5,32.5C 76.2223,31.4489 77.2223,30.7822 78.5,30.5 Z"/></g>
<g><path style="opacity:1" fill="#50b21f" d="M 21.5,30.5 C 22.552,30.3505 23.552,30.5172 24.5,31C 24.1667,31.3333 23.8333,31.6667 23.5,32C 24.3081,32.3076 24.9747,32.8076 25.5,33.5C 23.6517,37.8579 20.8184,41.5246 17,44.5C 15.9242,38.9893 17.4242,34.3227 21.5,30.5 Z"/></g>
<g><path style="opacity:1" fill="#52b420" d="M 51.5,36.5 C 48.0865,36.4198 44.7531,36.4198 41.5,36.5C 36.2891,30.7518 37.2891,30.0851 44.5,34.5C 45.293,33.6446 44.9597,32.8113 43.5,32C 47.1889,31.4941 49.8556,32.9941 51.5,36.5 Z"/></g>
<g><path style="opacity:1" fill="#fbd491" d="M 78.5,30.5 C 81.5051,32.5021 84.8384,33.8354 88.5,34.5C 88.5,35.5 88.5,36.5 88.5,37.5C 86.8333,37.5 85.1667,37.5 83.5,37.5C 83.6461,32.8634 82.9794,32.5301 81.5,36.5C 72.5839,37.4711 63.5839,37.8044 54.5,37.5C 49.8641,33.8574 50.5308,32.1908 56.5,32.5C 62.6097,32.653 68.9431,32.653 75.5,32.5C 73.9052,34.3738 74.2385,35.2071 76.5,35C 77.5822,33.6703 78.2488,32.1703 78.5,30.5 Z"/></g>
<g><path style="opacity:1" fill="#ff800d" d="M 83.5,37.5 C 82.0755,39.0311 81.4088,38.6977 81.5,36.5C 82.9794,32.5301 83.6461,32.8634 83.5,37.5 Z"/></g>
<g><path style="opacity:1" fill="#fe8c18" d="M 88.5,34.5 C 89.4916,34.3284 90.1583,34.6618 90.5,35.5C 90.6602,37.1992 90.4935,38.8659 90,40.5C 88.9614,39.7562 88.4614,38.7562 88.5,37.5C 88.5,36.5 88.5,35.5 88.5,34.5 Z"/></g>
<g><path style="opacity:0.995" fill="#fbd191" d="M 16.5,33.5 C 16.0293,35.5786 15.3627,37.5786 14.5,39.5C 9.83333,39.5 5.16667,39.5 0.5,39.5C 0.409526,36.8478 1.07619,34.5145 2.5,32.5C 6.10636,32.7892 9.60636,32.4558 13,31.5C 14.3024,32.0848 15.469,32.7515 16.5,33.5 Z"/></g>
<g><path style="opacity:1" fill="#71d93b" d="M 51.5,36.5 C 52.7298,38.2972 53.3964,40.2972 53.5,42.5C 48.9136,41.5402 44.9136,39.5402 41.5,36.5C 44.7531,36.4198 48.0865,36.4198 51.5,36.5 Z"/></g>
<g><path style="opacity:0.989" fill="#fcc789" d="M 90.5,35.5 C 92.8333,35.5 95.1667,35.5 97.5,35.5C 98.1667,36.8333 98.8333,38.1667 99.5,39.5C 99.5,40.1667 99.5,40.8333 99.5,41.5C 84.8333,41.5 70.1667,41.5 55.5,41.5C 55.1667,40.1667 54.8333,38.8333 54.5,37.5C 63.5839,37.8044 72.5839,37.4711 81.5,36.5C 81.4088,38.6977 82.0755,39.0311 83.5,37.5C 85.1667,37.5 86.8333,37.5 88.5,37.5C 88.4614,38.7562 88.9614,39.7562 90,40.5C 90.4935,38.8659 90.6602,37.1992 90.5,35.5 Z"/></g>
<g><path style="opacity:0.989" fill="#fcbb7f" d="M 39.5,37.5 C 44.1087,41.3738 49.442,43.7072 55.5,44.5C 55.5,43.5 55.5,42.5 55.5,41.5C 70.1667,41.5 84.8333,41.5 99.5,41.5C 99.5,42.8333 99.5,44.1667 99.5,45.5C 80.1667,45.5 60.8333,45.5 41.5,45.5C 40.2264,43.0075 39.5597,40.3408 39.5,37.5 Z"/></g>
<g><path style="opacity:1" fill="#62c72e" d="M 26.5,34.5 C 27.6491,34.7911 28.3158,35.6244 28.5,37C 27.6681,39.4783 27.5014,41.9783 28,44.5C 28.561,40.9054 29.7276,37.5721 31.5,34.5C 32.8201,41.2301 31.1534,47.2301 26.5,52.5C 23.8976,46.4538 23.8976,40.4538 26.5,34.5 Z"/></g>
<g><path style="opacity:0.99" fill="#fcb57b" d="M -0.5,39.5 C -0.166667,39.5 0.166667,39.5 0.5,39.5C 5.16667,39.5 9.83333,39.5 14.5,39.5C 14.1826,42.5719 14.5159,45.5719 15.5,48.5C 18.5218,46.3119 21.0218,43.6452 23,40.5C 23.498,43.4816 23.6646,46.4816 23.5,49.5C 15.5,49.5 7.5,49.5 -0.5,49.5C -0.5,46.1667 -0.5,42.8333 -0.5,39.5 Z"/></g>
<g><path style="opacity:0.999" fill="#feae75" d="M 41.5,45.5 C 60.8333,45.5 80.1667,45.5 99.5,45.5C 99.5,46.8333 99.5,48.1667 99.5,49.5C 80.5,49.5 61.5,49.5 42.5,49.5C 41.7659,48.2921 41.4326,46.9587 41.5,45.5 Z"/></g>
<g><path style="opacity:1" fill="#8a4a0b" d="M 39.5,37.5 C 39.5597,40.3408 40.2264,43.0075 41.5,45.5C 41.4326,46.9587 41.7659,48.2921 42.5,49.5C 42.6287,51.2161 42.962,52.8828 43.5,54.5C 44.1495,56.4352 44.4828,58.4352 44.5,60.5C 43.1519,57.5081 41.6519,54.5081 40,51.5C 38.5529,56.3185 37.7196,61.3185 37.5,66.5C 37.1667,66.5 36.8333,66.5 36.5,66.5C 36.5,63.5 36.5,60.5 36.5,57.5C 36.8164,51.25 36.1498,45.25 34.5,39.5C 33.4197,29.7467 35.0864,29.0801 39.5,37.5 Z"/></g>
<g><path style="opacity:0.995" fill="#fea170" d="M 42.5,49.5 C 61.5,49.5 80.5,49.5 99.5,49.5C 99.5,51.5 99.5,53.5 99.5,55.5C 80.9097,54.5135 62.243,54.1802 43.5,54.5C 42.962,52.8828 42.6287,51.2161 42.5,49.5 Z"/></g>
<g><path style="opacity:0.992" fill="#fd9d70" d="M 34.5,39.5 C 36.1498,45.25 36.8164,51.25 36.5,57.5C 24.0867,57.8126 11.7533,57.4792 -0.5,56.5C -0.5,54.1667 -0.5,51.8333 -0.5,49.5C 7.5,49.5 15.5,49.5 23.5,49.5C 24.4231,51.767 25.2564,54.1003 26,56.5C 29.8988,51.369 32.7322,45.7023 34.5,39.5 Z"/></g>
<g><path style="opacity:0.997" fill="#fe9470" d="M 43.5,54.5 C 62.243,54.1802 80.9097,54.5135 99.5,55.5C 99.5,56.8333 99.5,58.1667 99.5,59.5C 99.1667,59.5 98.8333,59.5 98.5,59.5C 84.1667,59.5 69.8333,59.5 55.5,59.5C 53.8523,58.1902 52.1856,56.8569 50.5,55.5C 49.3338,57.3649 49.6671,59.0316 51.5,60.5C 50.3698,61.6223 49.7031,62.9557 49.5,64.5C 48.1667,64.5 46.8333,64.5 45.5,64.5C 45.7678,62.901 45.4345,61.5676 44.5,60.5C 44.4828,58.4352 44.1495,56.4352 43.5,54.5 Z"/></g>
<g><path style="opacity:1" fill="#e44638" d="M 55.5,59.5 C 55.8333,60.1667 56.1667,60.8333 56.5,61.5C 56.3284,62.4916 56.6618,63.1583 57.5,63.5C 58.5063,64.3957 58.5063,65.0623 57.5,65.5C 56.5,65.5 55.5,65.5 54.5,65.5C 53.0813,64.5489 51.4147,64.2155 49.5,64.5C 49.7031,62.9557 50.3698,61.6223 51.5,60.5C 49.6671,59.0316 49.3338,57.3649 50.5,55.5C 52.1856,56.8569 53.8523,58.1902 55.5,59.5 Z"/></g>
<g><path style="opacity:0.989" fill="#fe8b72" d="M -0.5,56.5 C 11.7533,57.4792 24.0867,57.8126 36.5,57.5C 36.5,60.5 36.5,63.5 36.5,66.5C 35.1667,67.5 33.8333,68.5 32.5,69.5C 31.8333,69.5 31.1667,69.5 30.5,69.5C 21.5511,64.4054 12.2177,63.4054 2.5,66.5C 1.3485,64.2209 0.348502,61.8876 -0.5,59.5C -0.5,58.5 -0.5,57.5 -0.5,56.5 Z"/></g>
<g><path style="opacity:1" fill="#a85b04" d="M 44.5,60.5 C 45.4345,61.5676 45.7678,62.901 45.5,64.5C 46.8333,64.5 48.1667,64.5 49.5,64.5C 51.4147,64.2155 53.0813,64.5489 54.5,65.5C 48.7876,65.313 43.1209,65.6463 37.5,66.5C 37.7196,61.3185 38.5529,56.3185 40,51.5C 41.6519,54.5081 43.1519,57.5081 44.5,60.5 Z"/></g>
<g><path style="opacity:0.995" fill="#fc8670" d="M 55.5,59.5 C 69.8333,59.5 84.1667,59.5 98.5,59.5C 98.5905,62.1522 97.9238,64.4855 96.5,66.5C 86.6393,63.2855 77.306,64.2855 68.5,69.5C 64.7474,68.1406 61.0808,66.8073 57.5,65.5C 58.5063,65.0623 58.5063,64.3957 57.5,63.5C 60.5023,64.6435 63.5023,64.6435 66.5,63.5C 65.9747,62.8076 65.3081,62.3076 64.5,62C 61.6388,61.7995 58.9721,61.6328 56.5,61.5C 56.1667,60.8333 55.8333,60.1667 55.5,59.5 Z"/></g>
<g><path style="opacity:1" fill="#fb2e6d" d="M 56.5,61.5 C 58.9721,61.6328 61.6388,61.7995 64.5,62C 65.3081,62.3076 65.9747,62.8076 66.5,63.5C 63.5023,64.6435 60.5023,64.6435 57.5,63.5C 56.6618,63.1583 56.3284,62.4916 56.5,61.5 Z"/></g>
<g><path style="opacity:0.99" fill="#35c5d5" d="M 30.5,69.5 C 29.205,70.4884 27.8717,71.4884 26.5,72.5C 25.158,71.207 23.4913,70.3736 21.5,70C 15.5092,69.5005 9.50924,69.3338 3.5,69.5C 2.59603,68.791 2.26269,67.791 2.5,66.5C 12.2177,63.4054 21.5511,64.4054 30.5,69.5 Z"/></g>
<g><path style="opacity:1" fill="#adc604" d="M 54.5,65.5 C 55.5,65.5 56.5,65.5 57.5,65.5C 61.0808,66.8073 64.7474,68.1406 68.5,69.5C 69.795,70.4884 71.1283,71.4884 72.5,72.5C 72.8417,73.3382 73.5084,73.6716 74.5,73.5C 75.1667,74.8333 76.1667,75.8333 77.5,76.5C 79.6029,79.7198 81.9362,82.7198 84.5,85.5C 83.8333,86.8333 82.8333,87.8333 81.5,88.5C 80.8333,88.1667 80.1667,87.8333 79.5,87.5C 77.1238,82.2848 73.4572,78.1181 68.5,75C 61.2136,70.117 53.2136,68.2837 44.5,69.5C 42.4357,69.687 40.4357,70.187 38.5,71C 37.2888,71.8928 37.2888,72.7261 38.5,73.5C 50.8845,79.6872 62.8845,86.3539 74.5,93.5C 72.9505,94.4408 71.2838,95.1075 69.5,95.5C 57.0461,89.7732 44.7128,83.7732 32.5,77.5C 31.6143,76.675 31.281,75.675 31.5,74.5C 36.1508,73.2648 36.4842,71.5981 32.5,69.5C 33.8333,68.5 35.1667,67.5 36.5,66.5C 36.8333,66.5 37.1667,66.5 37.5,66.5C 43.1209,65.6463 48.7876,65.313 54.5,65.5 Z"/></g>
<g><path style="opacity:0.99" fill="#38c3d3" d="M 96.5,66.5 C 96.5674,67.9587 96.2341,69.2921 95.5,70.5C 89.8846,69.4265 84.2179,69.2599 78.5,70C 76.0261,70.0367 74.0261,70.87 72.5,72.5C 71.1283,71.4884 69.795,70.4884 68.5,69.5C 77.306,64.2855 86.6393,63.2855 96.5,66.5 Z"/></g>
<g><path style="opacity:0.999" fill="#035b6e" d="M 3.5,69.5 C 9.50924,69.3338 15.5092,69.5005 21.5,70C 23.4913,70.3736 25.158,71.207 26.5,72.5C 26.1583,73.3382 25.4916,73.6716 24.5,73.5C 23.7375,72.7321 22.7375,72.2321 21.5,72C 15.8431,71.5006 10.1764,71.3339 4.5,71.5C 3.66175,71.1583 3.32842,70.4916 3.5,69.5 Z"/></g>
<g><path style="opacity:0.999" fill="#02596c" d="M 95.5,70.5 C 95.5,71.1667 95.1667,71.5 94.5,71.5C 88.8236,71.3339 83.1569,71.5006 77.5,72C 76.2625,72.2321 75.2625,72.7321 74.5,73.5C 73.5084,73.6716 72.8417,73.3382 72.5,72.5C 74.0261,70.87 76.0261,70.0367 78.5,70C 84.2179,69.2599 89.8846,69.4265 95.5,70.5 Z"/></g>
<g><path style="opacity:0.977" fill="#00a2b2" d="M 4.5,71.5 C 10.1764,71.3339 15.8431,71.5006 21.5,72C 22.7375,72.2321 23.7375,72.7321 24.5,73.5C 23.8333,74.5 23.1667,75.5 22.5,76.5C 22.1667,76.5 21.8333,76.5 21.5,76.5C 16.5624,75.6076 11.5624,75.2743 6.5,75.5C 5.32627,74.4863 4.6596,73.153 4.5,71.5 Z"/></g>
<g><path style="opacity:1" fill="#c5d300" d="M 44.5,69.5 C 55.7865,75.9001 67.2865,82.2334 79,88.5C 79.3988,88.2716 79.5654,87.9382 79.5,87.5C 80.1667,87.8333 80.8333,88.1667 81.5,88.5C 79.3805,90.3998 77.0472,92.0664 74.5,93.5C 62.8845,86.3539 50.8845,79.6872 38.5,73.5C 37.2888,72.7261 37.2888,71.8928 38.5,71C 40.4357,70.187 42.4357,69.687 44.5,69.5 Z"/></g>
<g><path style="opacity:0.977" fill="#00a3b3" d="M 94.5,71.5 C 94.3404,73.153 93.6737,74.4863 92.5,75.5C 87.3054,75.1795 82.3054,75.5128 77.5,76.5C 76.1667,75.8333 75.1667,74.8333 74.5,73.5C 75.2625,72.7321 76.2625,72.2321 77.5,72C 83.1569,71.5006 88.8236,71.3339 94.5,71.5 Z"/></g>
<g><path style="opacity:0.961" fill="#036774" d="M 6.5,75.5 C 11.5624,75.2743 16.5624,75.6076 21.5,76.5C 19.3971,79.7198 17.0638,82.7198 14.5,85.5C 10.8831,82.9361 8.21643,79.6028 6.5,75.5 Z"/></g>
<g><path style="opacity:0.961" fill="#056774" d="M 92.5,75.5 C 90.7836,79.6028 88.1169,82.9361 84.5,85.5C 81.9362,82.7198 79.6029,79.7198 77.5,76.5C 82.3054,75.5128 87.3054,75.1795 92.5,75.5 Z"/></g>
<g><path style="opacity:1" fill="#dde100" d="M 44.5,69.5 C 53.2136,68.2837 61.2136,70.117 68.5,75C 73.4572,78.1181 77.1238,82.2848 79.5,87.5C 79.5654,87.9382 79.3988,88.2716 79,88.5C 67.2865,82.2334 55.7865,75.9001 44.5,69.5 Z"/></g>
<g><path style="opacity:1" fill="#9abb00" d="M 31.5,74.5 C 31.281,75.675 31.6143,76.675 32.5,77.5C 44.7128,83.7732 57.0461,89.7732 69.5,95.5C 67.3206,96.6772 64.9872,97.6772 62.5,98.5C 61.9717,97.2794 61.305,96.1127 60.5,95C 49.7079,89.7704 39.0412,84.2704 28.5,78.5C 27.479,77.9984 27.3123,77.3317 28,76.5C 29.1127,75.695 30.2794,75.0283 31.5,74.5 Z"/></g>
<g><path style="opacity:1" fill="#88b102" d="M 30.5,69.5 C 31.1667,69.5 31.8333,69.5 32.5,69.5C 36.4842,71.5981 36.1508,73.2648 31.5,74.5C 30.2794,75.0283 29.1127,75.695 28,76.5C 27.3123,77.3317 27.479,77.9984 28.5,78.5C 39.0412,84.2704 49.7079,89.7704 60.5,95C 61.305,96.1127 61.9717,97.2794 62.5,98.5C 61.209,98.2627 60.209,98.596 59.5,99.5C 57.8333,99.5 56.1667,99.5 54.5,99.5C 48.4419,95.1376 41.7753,91.8043 34.5,89.5C 31.5115,86.3929 27.8448,84.5596 23.5,84C 22.1912,82.2493 22.5245,80.7493 24.5,79.5C 23.3881,78.7348 22.7214,77.7348 22.5,76.5C 23.1667,75.5 23.8333,74.5 24.5,73.5C 25.4916,73.6716 26.1583,73.3382 26.5,72.5C 27.8717,71.4884 29.205,70.4884 30.5,69.5 Z"/></g>
<g><path style="opacity:1" fill="#6ca101" d="M 21.5,76.5 C 21.8333,76.5 22.1667,76.5 22.5,76.5C 22.7214,77.7348 23.3881,78.7348 24.5,79.5C 22.5245,80.7493 22.1912,82.2493 23.5,84C 27.8448,84.5596 31.5115,86.3929 34.5,89.5C 41.7753,91.8043 48.4419,95.1376 54.5,99.5C 49.5,99.5 44.5,99.5 39.5,99.5C 29.8503,97.1754 21.517,92.5087 14.5,85.5C 17.0638,82.7198 19.3971,79.7198 21.5,76.5 Z"/></g>
</svg>
